<!DOCTYPE svg PUBLIC "-//W3C//DTD SVG 1.1//EN" "http://www.w3.org/Graphics/SVG/1.1/DTD/svg11.dtd">
<!-- Uploaded to: SVG Repo, www.svgrepo.com, Transformed by: SVG Repo Mixer Tools -->
<svg fill="#F5D57E" version="1.1" id="Layer_1" xmlns="http://www.w3.org/2000/svg" xmlns:xlink="http://www.w3.org/1999/xlink" width="64px" height="64px" viewBox="0 0 52.332 19.547" xml:space="preserve">
<g id="SVGRepo_bgCarrier" stroke-width="0"/>
<g id="SVGRepo_tracerCarrier" stroke-linecap="round" stroke-linejoin="round"/>
<g id="SVGRepo_iconCarrier"> <path d="M50.996,0c-0.739,0-1.337,0.594-1.337,1.327v7.54h-1.841v-7.54c0-0.733-0.6-1.327-1.34-1.327 c-0.736,0-1.336,0.594-1.336,1.327v7.54h-1.84l0.002-7.54C43.305,0.594,42.704,0,41.967,0C41.23,0,40.63,0.594,40.63,1.327 l-0.001,7.54h-1.841v-7.54C38.788,0.594,38.191,0,37.452,0c-0.738,0-1.337,0.594-1.337,1.327v7.54h-1.842v-7.54 C34.273,0.594,33.676,0,32.938,0s-1.336,0.594-1.336,1.327v7.54H29.76v-7.54C29.76,0.594,29.161,0,28.422,0 c-0.738,0-1.337,0.594-1.337,1.327v7.54h-1.84v-7.54c0-0.733-0.6-1.327-1.338-1.327c-0.738,0-1.336,0.594-1.336,1.327v7.54H20.73 v-7.54C20.731,0.594,20.133,0,19.394,0c-0.738,0-1.337,0.594-1.337,1.327v7.54h-1.841l-0.001-7.54C16.215,0.594,15.617,0,14.879,0 c-0.739,0-1.337,0.594-1.337,1.327v7.54h-1.839v-7.54C11.703,0.594,11.104,0,10.366,0C9.627,0,9.029,0.594,9.029,1.327v7.54H7.188 v-7.54C7.188,0.594,6.59,0,5.851,0C5.114,0,4.515,0.594,4.515,1.327v7.54H2.673v-7.54C2.673,0.594,2.075,0,1.337,0 C0.598,0,0,0.594,0,1.327v16.642c0,0.281,0.087,0.537,0.237,0.752c0.198,0.484,0.676,0.828,1.237,0.828h49.385 c0.561,0,1.039-0.346,1.236-0.83c0.148-0.213,0.236-0.471,0.236-0.75V1.327C52.332,0.594,51.732,0,50.996,0z"/> </g>
</svg>