<!DOCTYPE svg PUBLIC "-//W3C//DTD SVG 1.1//EN" "http://www.w3.org/Graphics/SVG/1.1/DTD/svg11.dtd">
<!-- Uploaded to: SVG Repo, www.svgrepo.com, Transformed by: SVG Repo Mixer Tools -->
<svg fill="#F5D57E" height="64px" width="64px" version="1.1" id="Capa_1" xmlns="http://www.w3.org/2000/svg" xmlns:xlink="http://www.w3.org/1999/xlink" viewBox="0 0 58 58" xml:space="preserve">
<g id="SVGRepo_bgCarrier" stroke-width="0"/>
<g id="SVGRepo_tracerCarrier" stroke-linecap="round" stroke-linejoin="round"/>
<g id="SVGRepo_iconCarrier"> <g> <path d="M55,5V0H3v5H0v6v2v5v40h4h6h3h17h2h17h9V18v-5v-2V5H55z M5,2h48v3H5V2z M40,18c0,1.654-1.346,3-3,3s-3-1.346-3-3v-5h6V18z M24,18c0,1.654-1.346,3-3,3s-3-1.346-3-3v-5h6V18z M8,18c0,1.654-1.346,3-3,3s-3-1.346-3-3v-5h6V18z M18.293,41.293l8-8 c0.391-0.391,1.023-0.391,1.414,0s0.391,1.023,0,1.414l-8,8C19.512,42.902,19.256,43,19,43s-0.512-0.098-0.707-0.293 C17.902,42.316,17.902,41.684,18.293,41.293z M18.293,35.293l2-2c0.391-0.391,1.023-0.391,1.414,0s0.391,1.023,0,1.414l-2,2 C19.512,36.902,19.256,37,19,37s-0.512-0.098-0.707-0.293C17.902,36.316,17.902,35.684,18.293,35.293z M18.293,47.293l8-8 c0.391-0.391,1.023-0.391,1.414,0s0.391,1.023,0,1.414l-8,8C19.512,48.902,19.256,49,19,49s-0.512-0.098-0.707-0.293 C17.902,48.316,17.902,47.684,18.293,47.293z M34.293,41.293l8-8c0.391-0.391,1.023-0.391,1.414,0s0.391,1.023,0,1.414l-8,8 C35.512,42.902,35.256,43,35,43s-0.512-0.098-0.707-0.293C33.902,42.316,33.902,41.684,34.293,41.293z M34.293,35.293l2-2 c0.391-0.391,1.023-0.391,1.414,0s0.391,1.023,0,1.414l-2,2C35.512,36.902,35.256,37,35,37s-0.512-0.098-0.707-0.293 C33.902,36.316,33.902,35.684,34.293,35.293z M34.293,47.293l8-8c0.391-0.391,1.023-0.391,1.414,0s0.391,1.023,0,1.414l-8,8 C35.512,48.902,35.256,49,35,49s-0.512-0.098-0.707-0.293C33.902,48.316,33.902,47.684,34.293,47.293z M49,56V26H32v30h-2V26H13v30 h-3v-5.586L4.414,56H2V21.974C2.838,22.609,3.87,23,5,23c1.641,0,3.088-0.806,4-2.031C9.912,22.194,11.359,23,13,23 s3.088-0.806,4-2.031C17.912,22.194,19.359,23,21,23s3.088-0.806,4-2.031C25.912,22.194,27.359,23,29,23s3.088-0.806,4-2.031 C33.912,22.194,35.359,23,37,23s3.088-0.806,4-2.031C41.912,22.194,43.359,23,45,23s3.088-0.806,4-2.031 C49.912,22.194,51.359,23,53,23c1.13,0,2.162-0.391,3-1.026V56H49z M56,18c0,1.654-1.346,3-3,3s-3-1.346-3-3v-5h6V18z M50,11h-2h-6 h-2h-6h-2h-6h-2h-6h-2h-6H8H2V7h1h52h1v4H50z"/> <path d="M11,29c0-2.206-1.794-4-4-4s-4,1.794-4,4c0,1.859,1.279,3.411,3,3.858V34H4v7.586l6-6V34H8v-1.142 C9.721,32.411,11,30.859,11,29z M5,29c0-1.103,0.897-2,2-2s2,0.897,2,2s-0.897,2-2,2S5,30.103,5,29z"/> <polygon points="4,53.586 10,47.586 10,44.414 4,50.414 "/> <polygon points="4,47.586 10,41.586 10,38.414 4,44.414 "/> </g> </g>
</svg>